<svg width="400" height="400" viewBox="0 0 400 400" fill="none" xmlns="http://www.w3.org/2000/svg">
<rect x="23" y="199.777" width="250" height="250" rx="45" transform="rotate(-45 23 199.777)" fill="#1890FF"/>
<path d="M165.1 160C167.167 160.4 168.7 161.1 169.7 162.1C170.767 163.1 171.3 164.267 171.3 165.6C171.3 167.8 170.667 169.4 169.4 170.4C168.2 171.4 166.267 171.8 163.6 171.6C157.6 171.133 152.9 170.833 149.5 170.7C146.167 170.5 141.767 170.367 136.3 170.3C133.833 182.567 131.567 194.9 129.5 207.3C128.767 211.833 128 217.1 127.2 223.1C126.4 229.033 125.867 233.833 125.6 237.5C125.467 239.433 124.667 240.933 123.2 242C121.733 243 119.967 243.5 117.9 243.5C115.7 243.5 114 242.967 112.8 241.9C111.6 240.833 111 239.433 111 237.7C111 236.1 111.233 233.467 111.7 229.8C112.233 226.067 112.833 222.167 113.5 218.1C114.233 214.033 114.8 210.5 115.2 207.5C115.933 202.433 116.767 197.4 117.7 192.4C118.633 187.4 119.567 182.667 120.5 178.2C120.7 177.2 120.933 176.067 121.2 174.8C121.467 173.467 121.767 172 122.1 170.4C115.567 170.6 110.433 171.133 106.7 172C102.967 172.867 100.3 174.1 98.7 175.7C97.1667 177.233 96.4 179.233 96.4 181.7C96.4 183.967 97.0667 186.133 98.4 188.2C98.6667 188.667 98.8 189.167 98.8 189.7C98.8 190.967 98.0333 192.167 96.5 193.3C95.0333 194.367 93.5 194.9 91.9 194.9C90.7667 194.9 89.8333 194.567 89.1 193.9C87.7667 192.767 86.6667 191.167 85.8 189.1C84.9333 186.967 84.5 184.567 84.5 181.9C84.5 176.233 86.3333 171.7 90 168.3C93.7333 164.833 99.3667 162.3 106.9 160.7C114.5 159.1 124.233 158.3 136.1 158.3C143.433 158.3 149.267 158.433 153.6 158.7C158 158.967 161.833 159.4 165.1 160ZM158.354 243.5C154.221 243.5 150.921 242 148.454 239C145.987 236 144.754 232.067 144.754 227.2C144.754 221.867 145.987 216.833 148.454 212.1C150.921 207.3 154.187 203.467 158.254 200.6C162.387 197.667 166.754 196.2 171.354 196.2C172.821 196.2 173.787 196.5 174.254 197.1C174.787 197.633 175.221 198.633 175.554 200.1C176.954 199.833 178.421 199.7 179.954 199.7C183.221 199.7 184.854 200.867 184.854 203.2C184.854 204.6 184.354 207.933 183.354 213.2C181.821 220.867 181.054 226.2 181.054 229.2C181.054 230.2 181.287 231 181.754 231.6C182.287 232.2 182.954 232.5 183.754 232.5C185.021 232.5 186.554 231.7 188.354 230.1C190.154 228.433 192.587 225.767 195.654 222.1C196.454 221.167 197.354 220.7 198.354 220.7C199.221 220.7 199.887 221.1 200.354 221.9C200.887 222.7 201.154 223.8 201.154 225.2C201.154 227.867 200.521 229.933 199.254 231.4C196.521 234.8 193.621 237.667 190.554 240C187.487 242.333 184.521 243.5 181.654 243.5C179.454 243.5 177.421 242.767 175.554 241.3C173.754 239.767 172.387 237.7 171.454 235.1C167.987 240.7 163.621 243.5 158.354 243.5ZM161.954 233.4C163.421 233.4 164.821 232.533 166.154 230.8C167.487 229.067 168.454 226.767 169.054 223.9L172.754 205.5C169.954 205.567 167.354 206.633 164.954 208.7C162.621 210.7 160.754 213.367 159.354 216.7C157.954 220.033 157.254 223.567 157.254 227.3C157.254 229.367 157.654 230.9 158.454 231.9C159.321 232.9 160.487 233.4 161.954 233.4ZM248.527 220.7C249.393 220.7 250.06 221.1 250.527 221.9C251.06 222.7 251.327 223.8 251.327 225.2C251.327 227.867 250.693 229.933 249.427 231.4C246.36 234.933 243.193 237.833 239.927 240.1C236.727 242.367 233.06 243.5 228.927 243.5C225.527 243.5 222.96 242.533 221.227 240.6C219.493 238.6 218.627 235.733 218.627 232C218.627 230.133 219.093 226.8 220.027 222C220.893 217.8 221.327 214.9 221.327 213.3C221.327 212.233 220.96 211.7 220.227 211.7C219.36 211.7 218.127 212.833 216.527 215.1C214.927 217.3 213.327 220.233 211.727 223.9C210.127 227.567 208.827 231.433 207.827 235.5C206.56 240.833 203.427 243.5 198.427 243.5C196.427 243.5 195.093 242.8 194.427 241.4C193.827 239.933 193.527 237.333 193.527 233.6C193.527 231.467 193.56 229.767 193.627 228.5L193.727 220.5C193.727 210.233 194.76 199.533 196.827 188.4C198.96 177.267 202.06 167.933 206.127 160.4C210.26 152.8 215.193 149 220.927 149C223.993 149 226.46 150.333 228.327 153C230.26 155.6 231.227 159 231.227 163.2C231.227 169.933 229.26 176.933 225.327 184.2C221.393 191.4 214.993 199.833 206.127 209.5C205.927 212.967 205.827 216.533 205.827 220.2C208.027 214.533 210.46 209.933 213.127 206.4C215.86 202.8 218.527 200.233 221.127 198.7C223.793 197.167 226.227 196.4 228.427 196.4C232.76 196.4 234.927 198.567 234.927 202.9C234.927 205.5 234.193 210.2 232.727 217C231.46 222.8 230.827 226.633 230.827 228.5C230.827 231.167 231.793 232.5 233.727 232.5C235.06 232.5 236.627 231.7 238.427 230.1C240.293 228.433 242.76 225.767 245.827 222.1C246.627 221.167 247.527 220.7 248.527 220.7ZM218.827 158.9C217.627 158.9 216.293 160.633 214.827 164.1C213.36 167.5 211.927 172.133 210.527 178C209.193 183.8 208.093 190.133 207.227 197C211.36 192.133 214.76 186.833 217.427 181.1C220.16 175.367 221.527 170.167 221.527 165.5C221.527 163.367 221.293 161.733 220.827 160.6C220.36 159.467 219.693 158.9 218.827 158.9ZM256.322 189.8C253.522 189.8 251.422 189.167 250.022 187.9C248.622 186.567 247.922 184.733 247.922 182.4C247.922 180.067 248.822 178.133 250.622 176.6C252.489 175 254.789 174.2 257.522 174.2C259.989 174.2 261.989 174.8 263.522 176C265.055 177.2 265.822 178.9 265.822 181.1C265.822 183.767 264.955 185.9 263.222 187.5C261.489 189.033 259.189 189.8 256.322 189.8ZM255.522 243.5C251.189 243.5 248.022 241.967 246.022 238.9C244.089 235.833 243.122 231.767 243.122 226.7C243.122 223.7 243.489 219.867 244.222 215.2C245.022 210.467 246.022 206.067 247.222 202C247.822 199.867 248.622 198.4 249.622 197.6C250.622 196.8 252.222 196.4 254.422 196.4C257.822 196.4 259.522 197.533 259.522 199.8C259.522 201.467 258.889 205.333 257.622 211.4C256.022 218.733 255.222 223.7 255.222 226.3C255.222 228.3 255.489 229.833 256.022 230.9C256.555 231.967 257.455 232.5 258.722 232.5C259.922 232.5 261.422 231.667 263.222 230C265.022 228.333 267.422 225.7 270.422 222.1C271.222 221.167 272.122 220.7 273.122 220.7C273.989 220.7 274.655 221.1 275.122 221.9C275.655 222.7 275.922 223.8 275.922 225.2C275.922 227.867 275.289 229.933 274.022 231.4C267.422 239.467 261.255 243.5 255.522 243.5ZM308.231 210.1C309.698 210.1 310.931 210.633 311.931 211.7C312.998 212.7 313.531 213.967 313.531 215.5C313.531 216.367 313.331 217.3 312.931 218.3C311.865 220.767 310.365 222.833 308.431 224.5C306.498 226.167 304.365 227 302.031 227C300.165 227 298.565 226.333 297.231 225C295.965 223.667 295.331 221.867 295.331 219.6C295.331 218.333 295.398 216.967 295.531 215.5C295.665 214.433 295.731 213.7 295.731 213.3C295.731 212.767 295.598 212.367 295.331 212.1C295.131 211.833 294.865 211.7 294.531 211.7C293.598 211.7 292.331 212.833 290.731 215.1C289.131 217.3 287.531 220.233 285.931 223.9C284.331 227.567 283.031 231.433 282.031 235.5C281.298 238.7 280.465 240.833 279.531 241.9C278.598 242.967 277.065 243.5 274.931 243.5C272.398 243.5 270.598 242.167 269.531 239.5C268.531 236.833 268.031 232.567 268.031 226.7C268.031 218.033 269.265 209.8 271.731 202C272.331 200.067 273.298 198.667 274.631 197.8C276.031 196.867 277.965 196.4 280.431 196.4C281.765 196.4 282.698 196.567 283.231 196.9C283.765 197.233 284.031 197.867 284.031 198.8C284.031 199.867 283.531 202.267 282.531 206C281.865 208.667 281.331 211 280.931 213C280.531 215 280.198 217.467 279.931 220.4C282.131 214.667 284.598 210 287.331 206.4C290.065 202.8 292.731 200.233 295.331 198.7C297.931 197.167 300.298 196.4 302.431 196.4C304.365 196.4 305.831 196.967 306.831 198.1C307.898 199.167 308.431 200.767 308.431 202.9C308.431 204.167 308.065 206.567 307.331 210.1H308.231Z" fill="white"/>
</svg>
